<svg width="128" height="27" viewBox="0 0 128 27" fill="none" xmlns="http://www.w3.org/2000/svg">
<path fill-rule="evenodd" clip-rule="evenodd" d="M13.4451 26.4529C7.58539 26.4366 2.2057 22.6675 0.517306 16.8514C-1.5187 9.81679 2.63608 2.506 9.80348 0.507721C16.9709 -1.49056 24.4197 2.58723 26.4557 9.62183C26.8033 10.824 26.9523 12.0263 26.9523 13.2122H24.8004C24.8004 12.205 24.6845 11.1977 24.3866 10.1904C22.6816 4.29308 16.4081 0.865137 10.3994 2.53849C4.37413 4.21185 0.88147 10.3692 2.58642 16.2828C3.99341 21.1566 8.5289 24.3246 13.4451 24.3409V26.4529ZM15.0355 18.7348C17.6343 18.0363 19.3227 15.7293 19.3227 13.2111L21.458 13.1949C21.4746 16.6553 19.1572 19.8071 15.5983 20.7656C11.3442 21.9029 6.95766 19.4497 5.79895 15.2744C4.64025 11.1154 7.13974 6.8101 11.3939 5.65662C12.1553 5.44541 12.9333 5.36418 13.6947 5.38043V7.49244C13.1319 7.4762 12.536 7.52493 11.9567 7.6874C8.86125 8.5322 7.02387 11.684 7.86807 14.722C8.72883 17.7601 11.9401 19.5634 15.0355 18.7348ZM33 12.636C33 9.27014 35.3312 6.39209 39.2993 6.39209C43.2178 6.39209 45.5986 9.27014 45.5986 12.636C45.5986 16.0018 43.2674 18.8799 39.2993 18.8799C35.3808 18.8799 33 16.0018 33 12.636ZM43.9122 12.636C43.9122 10.0018 42.2258 7.75794 39.2993 7.75794C36.3729 7.75794 34.6864 10.0018 34.6864 12.636C34.6864 15.2701 36.3729 17.514 39.2993 17.514C42.2258 17.4653 43.9122 15.2213 43.9122 12.636ZM51.7973 18.8323C54.1285 18.8323 55.7654 17.0763 55.7654 14.6862C55.7654 12.1985 54.1782 10.4912 51.8469 10.4912C50.5573 10.4912 49.4165 11.1253 48.9204 12.1009V10.7351H47.3828V22.2468H48.9204V17.2226C49.4661 18.1982 50.5573 18.8323 51.7973 18.8323ZM51.5493 11.857C53.1365 11.857 54.2278 13.0277 54.2278 14.6862C54.2278 16.2959 53.1365 17.4665 51.5493 17.5153C49.9125 17.5153 48.8212 16.3446 48.8212 14.6862C48.8212 13.0277 49.9621 11.857 51.5493 11.857ZM66.3804 10.7322H67.8685V12.1956C68.3149 11.1712 69.2573 10.5371 70.6461 10.5371C72.6302 10.5371 73.6222 11.659 73.6222 13.7566V18.6346H72.0846V14.4395C72.0846 12.6834 71.4893 11.8542 70.0509 11.8542C68.5629 11.8542 67.7693 12.8785 67.7693 14.4883V18.6833H66.2812V10.7322H66.3804ZM61.0205 17.5125C62.1117 17.5125 62.8062 17.0735 63.1534 16.3418L64.3438 17.0735C63.7982 18.1467 62.5086 18.8296 60.9709 18.8296C58.4909 18.8296 56.9532 17.2199 56.9532 14.6833C56.9532 12.1468 58.5405 10.5371 60.9213 10.5371C63.203 10.5371 64.7406 12.0493 64.7406 14.2443C64.7406 14.5858 64.7406 14.7321 64.691 15.1224H58.4909C58.5405 16.6345 59.4829 17.5125 61.0205 17.5125ZM63.2526 13.9517C63.2526 12.5858 62.3598 11.7078 60.9213 11.7078C59.4829 11.7078 58.5901 12.6346 58.4909 13.9517H63.2526ZM86.0968 15.9043C85.3528 16.8311 84.1623 17.4165 82.6247 17.4165C79.6983 17.4165 78.0118 15.2214 78.0118 12.636C78.0118 10.0018 79.6983 7.8555 82.6247 7.8555C84.1623 7.8555 85.3032 8.44087 86.0968 9.3677L87.3368 8.34331C86.2456 7.17258 84.6583 6.39209 82.6743 6.39209C78.7558 6.39209 76.375 9.27014 76.375 12.636C76.375 16.0018 78.7062 18.8799 82.6743 18.8799C84.7079 18.8799 86.2952 18.0994 87.3368 16.9287L86.0968 15.9043ZM98.3984 6.68799H99.936V18.6389H98.3984V6.68799ZM101.523 14.6833C101.523 12.3907 103.111 10.5371 105.69 10.5371C108.269 10.5371 109.856 12.3907 109.856 14.6833C109.856 16.976 108.269 18.8296 105.69 18.8296C103.111 18.8296 101.523 17.0248 101.523 14.6833ZM108.368 14.6833C108.368 13.1224 107.376 11.8542 105.69 11.8542C104.003 11.8542 103.011 13.0736 103.011 14.6833C103.011 16.2443 104.003 17.5126 105.69 17.5126C107.376 17.5126 108.368 16.2931 108.368 14.6833ZM112.983 10.7862H111.495H111.445V18.7371H112.933V14.5421C112.933 12.9324 113.727 11.9081 115.215 11.9081C116.653 11.9081 117.249 12.7373 117.249 14.4933V18.6883H118.737V13.8104C118.737 11.713 117.745 10.5911 115.761 10.5911C114.372 10.5911 113.429 11.2252 112.983 12.2495V10.7862ZM88.4297 14.6833C88.4297 12.3907 90.0169 10.5371 92.5961 10.5371C95.1754 10.5371 96.7626 12.3907 96.7626 14.6833C96.7626 16.976 95.1754 18.8296 92.5961 18.8296C90.0169 18.8296 88.4297 17.0248 88.4297 14.6833ZM95.2746 14.6833C95.2746 13.1224 94.2826 11.8542 92.5961 11.8542C90.9097 11.8542 89.9177 13.0736 89.9177 14.6833C89.9177 16.2443 90.9097 17.5126 92.5961 17.5126C94.2826 17.5126 95.2746 16.2931 95.2746 14.6833ZM126.371 10.7825H127.909L127.859 18.2946C127.859 20.8312 126.322 22.4409 123.842 22.4409C122.304 22.4409 121.014 21.758 120.469 20.6848L121.758 20.0019C122.106 20.7336 122.8 21.1726 123.842 21.1726C125.379 21.1726 126.272 20.2946 126.322 18.7824V17.2214C125.875 18.1483 124.883 18.8312 123.544 18.8312C121.461 18.8312 120.518 17.4653 120.518 15.4654V10.7825H122.056V15.1727C122.056 16.5385 122.502 17.5141 124.09 17.5141C125.627 17.5141 126.371 16.2458 126.371 14.8312V10.7825Z" fill="#35375E"/>
</svg>
