<svg width="1439" height="165" viewBox="0 0 1439 165" fill="none" xmlns="http://www.w3.org/2000/svg">
<mask id="mask0" mask-type="alpha" maskUnits="userSpaceOnUse" x="0" y="0" width="1440" height="165">
<rect width="1440" height="165" fill="#FFD780"/>
</mask>
<g mask="url(#mask0)">
<rect width="1440" height="165" fill="#BCF7D7"/>
<path opacity="0.1" fill-rule="evenodd" clip-rule="evenodd" d="M123.147 524.029C53.0822 510.695 -14.658 464.3 -39.0077 397.276C-61.6478 334.959 -9.30655 275.768 9.90148 212.316C28.8058 149.867 16.7447 70.5755 70.9076 34.1799C126.773 -3.35955 200.961 20.2834 265.056 40.8609C327.082 60.774 388.551 89.7364 420.594 146.445C453.018 203.827 454.612 274.391 431.984 336.284C410.658 394.613 358.032 430.469 304.957 462.734C248.149 497.268 188.466 536.46 123.147 524.029Z" fill="#5C9978"/>
<path opacity="0.1" fill-rule="evenodd" clip-rule="evenodd" d="M1426.95 -168.88C1497.93 -175.831 1576 -150.405 1618.25 -92.96C1657.53 -39.5482 1623.99 31.9935 1623.44 98.2869C1622.9 163.532 1656.82 236.212 1615.11 286.395C1572.09 338.156 1494.24 336.378 1426.95 334.697C1361.82 333.07 1294.68 322.603 1247.96 277.223C1200.68 231.303 1179.26 164.048 1183.53 98.2869C1187.56 36.3123 1227.94 -12.921 1269.78 -58.8355C1314.55 -107.978 1360.77 -162.4 1426.95 -168.88Z" fill="#5C9978"/>
<path opacity="0.4" fill-rule="evenodd" clip-rule="evenodd" d="M985.006 164.742C985.058 173.842 979.493 182.217 970.886 184.896C962.638 187.462 954.347 182.901 949.237 175.875C944.025 168.71 941.779 159.125 946.862 151.867C952.115 144.366 962.038 142.368 970.663 145.28C979.058 148.114 984.956 155.801 985.006 164.742Z" fill="#5C9978"/>
<path opacity="0.7" fill-rule="evenodd" clip-rule="evenodd" d="M59.9999 151.548C60.0112 149.744 59.2386 147.92 57.4869 147.3C55.5361 146.609 53.2949 147.124 52.0464 148.73C50.7355 150.415 50.6127 152.766 51.9258 154.45C53.1778 156.056 55.485 156.341 57.4347 155.64C59.1446 155.025 59.9888 153.311 59.9999 151.548Z" fill="#5C9978"/>
<path opacity="0.2" fill-rule="evenodd" clip-rule="evenodd" d="M786.375 -0.367344C786.4 -4.58359 784.651 -8.84821 780.686 -10.2993C776.269 -11.9154 771.195 -10.7097 768.369 -6.95623C765.401 -3.01527 765.123 2.48234 768.096 6.41963C770.93 10.1741 776.153 10.8403 780.567 9.20134C784.438 7.76406 786.35 3.7556 786.375 -0.367344Z" fill="#5C9978"/>
</g>
</svg>
