<svg width="44" height="44" viewBox="0 0 44 44" fill="none" xmlns="http://www.w3.org/2000/svg">
<path d="M1.00433 13.6813C5.64283 13.6813 9.40308 17.4421 9.40308 22.0813" stroke="#35375E" stroke-width="2"/>
<path d="M1.00808 9.48108C7.96583 9.48108 13.6062 15.1223 13.6062 22.0811" stroke="#35375E" stroke-width="2"/>
<path d="M1.00011 5.28186C10.2771 5.28186 17.7976 12.8035 17.7976 22.0818" stroke="#35375E" stroke-width="2"/>
<path d="M1.00386 1.08264C12.6001 1.08264 22.0007 10.4847 22.0007 22.0826" stroke="#35375E" stroke-width="2"/>
<path d="M43.0001 30.318C38.3616 30.318 34.6013 26.5572 34.6013 21.918" stroke="#35375E" stroke-width="2"/>
<path d="M42.9968 34.5177C36.0391 34.5177 30.3987 28.8765 30.3987 21.9177" stroke="#35375E" stroke-width="2"/>
<path d="M43.0014 38.7174C33.7244 38.7174 26.2039 31.1958 26.2039 21.9174" stroke="#35375E" stroke-width="2"/>
<path d="M42.9976 42.9166C31.4014 42.9166 22.0007 33.5146 22.0007 21.9167" stroke="#35375E" stroke-width="2"/>
<path d="M13.6836 43.0005C13.6836 38.3613 17.4438 34.6005 22.0823 34.6005" stroke="#35375E" stroke-width="2"/>
<path d="M9.48047 43.0022C9.48047 36.0434 15.1208 30.4022 22.0786 30.4022" stroke="#35375E" stroke-width="2"/>
<path d="M5.28516 43.0001C5.28516 33.7217 12.8057 26.2001 22.0827 26.2001" stroke="#35375E" stroke-width="2"/>
<path d="M1.08203 43.0008C1.08203 31.4029 10.4827 22.0009 22.0789 22.0009" stroke="#35375E" stroke-width="2"/>
<path d="M30.3125 1.00125C30.3125 5.64044 26.5523 9.40125 21.9138 9.40125" stroke="#35375E" stroke-width="2"/>
<path d="M34.5156 0.99999C34.5156 7.95877 28.8753 13.6 21.9175 13.6" stroke="#35375E" stroke-width="2"/>
<path d="M38.7117 1.00166C38.7117 10.28 31.1912 17.8016 21.9142 17.8016" stroke="#35375E" stroke-width="2"/>
<path d="M42.9141 1.00088C42.9141 12.5988 33.5134 22.0009 21.9172 22.0009" stroke="#35375E" stroke-width="2"/>
</svg>
