<svg width="46" height="47" viewBox="0 0 46 47" fill="none" xmlns="http://www.w3.org/2000/svg">
<path d="M22.9994 31.8027C18.1396 31.8027 14.1999 27.863 14.1999 23.0032" stroke="#35375E" stroke-width="2"/>
<path d="M22.9979 36.2002C15.7081 36.2002 9.79858 30.2907 9.79858 23.0009" stroke="#35375E" stroke-width="2"/>
<path d="M22.9964 40.6016C13.2767 40.6016 5.39731 32.7222 5.39731 23.0025" stroke="#35375E" stroke-width="2"/>
<path d="M22.9987 45.001C10.8491 45.001 0.999817 35.1517 0.999817 23.0021" stroke="#35375E" stroke-width="2"/>
<path d="M36.198 23.0022C36.198 27.8621 40.1377 31.8018 44.9975 31.8018" stroke="#35375E" stroke-width="2"/>
<path d="M31.8004 23.0038C31.8004 30.2936 37.71 36.2031 44.9998 36.2031" stroke="#35375E" stroke-width="2"/>
<path d="M27.3992 23.0054C27.3992 32.7251 35.2786 40.6045 44.9983 40.6045" stroke="#35375E" stroke-width="2"/>
<path d="M22.9998 23.0031C22.9998 35.1527 32.849 45.002 44.9986 45.002" stroke="#35375E" stroke-width="2"/>
<path d="M1.00047 14.1992C5.86032 14.1992 9.80002 18.1389 9.80002 22.9988" stroke="#35375E" stroke-width="2"/>
<path d="M1.00197 9.80176C8.29175 9.80176 14.2013 15.7113 14.2013 23.0011" stroke="#35375E" stroke-width="2"/>
<path d="M1.00347 5.40039C10.7232 5.40039 18.6026 13.2798 18.6026 22.9995" stroke="#35375E" stroke-width="2"/>
<path d="M1.00118 1.00098C13.1508 1.00098 23.0001 10.8502 23.0001 22.9999" stroke="#35375E" stroke-width="2"/>
<path d="M23.0001 14.1992C27.86 14.1992 31.7997 18.1389 31.7997 22.9988" stroke="#35375E" stroke-width="2"/>
<path d="M23.0016 9.80176C30.2914 9.80176 36.2009 15.7113 36.2009 23.0011" stroke="#35375E" stroke-width="2"/>
<path d="M23.0031 5.40039C32.7228 5.40039 40.6022 13.2798 40.6022 22.9995" stroke="#35375E" stroke-width="2"/>
<path d="M23.0008 1.00098C35.1505 1.00098 44.9997 10.8502 44.9997 22.9999" stroke="#35375E" stroke-width="2"/>
</svg>
