<svg width="47" height="47" viewBox="0 0 47 47" fill="none" xmlns="http://www.w3.org/2000/svg">
<path d="M22.9991 15.1973C18.139 15.1973 14.1991 19.1372 14.1991 23.9973" stroke="#35375E" stroke-width="2"/>
<path d="M23.0007 10.7988C15.7105 10.7988 9.80066 16.7087 9.80066 23.9988" stroke="#35375E" stroke-width="2"/>
<path d="M22.9976 6.39746C13.2774 6.39746 5.39758 14.2773 5.39758 23.9975" stroke="#35375E" stroke-width="2"/>
<path d="M22.9999 1.99805C10.8496 1.99805 0.999877 11.8478 0.999877 23.9981" stroke="#35375E" stroke-width="2"/>
<path d="M31.8026 24.0017C31.8026 28.8619 27.8627 32.8018 23.0026 32.8018" stroke="#35375E" stroke-width="2"/>
<path d="M36.201 24.0002C36.201 31.2903 30.2912 37.2002 23.001 37.2002" stroke="#35375E" stroke-width="2"/>
<path d="M40.6022 24.0035C40.6022 33.7237 32.7224 41.6035 23.0021 41.6035" stroke="#35375E" stroke-width="2"/>
<path d="M45.0018 24.001C45.0018 36.1512 35.1521 46.001 23.0018 46.001" stroke="#35375E" stroke-width="2"/>
<path d="M31.8025 2.00077C31.8025 6.86088 27.8626 10.8008 23.0025 10.8008" stroke="#35375E" stroke-width="2"/>
<path d="M36.2009 1.9992C36.2009 9.28937 30.2911 15.1992 23.0009 15.1992" stroke="#35375E" stroke-width="2"/>
<path d="M40.6039 2.00056C40.6039 11.7208 32.7241 19.6006 23.0039 19.6006" stroke="#35375E" stroke-width="2"/>
<path d="M45.0017 1.99997C45.0017 14.1503 35.152 24 23.0017 24" stroke="#35375E" stroke-width="2"/>
<path d="M1.00162 32.8008C5.86174 32.8008 9.80164 28.8609 9.80164 24.0008" stroke="#35375E" stroke-width="2"/>
<path d="M1.00006 37.1992C8.29022 37.1992 14.2001 31.2894 14.2001 23.9992" stroke="#35375E" stroke-width="2"/>
<path d="M1.00129 41.6025C10.7215 41.6025 18.6013 33.7227 18.6013 24.0025" stroke="#35375E" stroke-width="2"/>
<path d="M1.00083 46C13.1511 46 23.0009 36.1503 23.0009 24" stroke="#35375E" stroke-width="2"/>
<rect x="22" y="23" width="2" height="2" fill="#35375E"/>
</svg>
