<svg width="44" height="44" viewBox="0 0 44 44" fill="none" xmlns="http://www.w3.org/2000/svg">
<path d="M14.4016 26.8294C14.4016 22.5959 17.8042 19.1639 22.0015 19.1639" stroke="#35375E" stroke-width="2"/>
<path d="M10.5984 26.8306C10.5984 20.4803 15.7022 15.3324 21.9982 15.3324" stroke="#35375E" stroke-width="2"/>
<path d="M6.80078 26.8289C6.80078 18.3618 13.6059 11.4979 22.0005 11.4979" stroke="#35375E" stroke-width="2"/>
<path d="M3 26.8296C3 16.2458 11.5064 7.66589 21.9996 7.66589" stroke="#35375E" stroke-width="2"/>
<path d="M29.5984 5.56111e-05C29.5984 4.23358 26.1958 7.66553 21.9985 7.66553" stroke="#35375E" stroke-width="2"/>
<path d="M33.4016 0.00130524C33.4016 6.35159 28.2978 11.4995 22.0018 11.4995" stroke="#35375E" stroke-width="2"/>
<path d="M37.1992 0.00157607C37.1992 8.46862 30.3941 15.3325 21.9995 15.3325" stroke="#35375E" stroke-width="2"/>
<path d="M41 0.000873312C41 10.5847 32.4936 19.1646 22.0004 19.1645" stroke="#35375E" stroke-width="2"/>
<path d="M14.4016 44.001C14.4016 39.7675 17.8042 36.3356 22.0015 36.3356" stroke="#35375E" stroke-width="2"/>
<path d="M10.5984 43.9998C10.5984 37.6495 15.7022 32.5016 21.9982 32.5016" stroke="#35375E" stroke-width="2"/>
<path d="M6.80078 43.9995C6.80078 35.5325 13.6059 28.6686 22.0005 28.6686" stroke="#35375E" stroke-width="2"/>
<path d="M3 44.0002C3 33.4164 11.5064 24.8365 21.9996 24.8365" stroke="#35375E" stroke-width="2"/>
<path d="M29.5984 17.17C29.5984 21.4035 26.1958 24.8354 21.9985 24.8354" stroke="#35375E" stroke-width="2"/>
<path d="M33.4016 17.1693C33.4016 23.5196 28.2978 28.6675 22.0018 28.6675" stroke="#35375E" stroke-width="2"/>
<path d="M37.1992 17.1695C37.1992 25.6366 30.3941 32.5005 21.9995 32.5005" stroke="#35375E" stroke-width="2"/>
<path d="M41 17.1708C41 27.7546 32.4936 36.3345 22.0004 36.3345" stroke="#35375E" stroke-width="2"/>
</svg>
