<svg width="46" height="46" viewBox="0 0 46 46" fill="none" xmlns="http://www.w3.org/2000/svg">
<path d="M23.0002 31.8007C18.1404 31.8007 14.2007 27.861 14.2007 23.0011" stroke="#35375E" stroke-width="2"/>
<path d="M22.9989 36.1982C15.7091 36.1982 9.79956 30.2887 9.79956 22.9989" stroke="#35375E" stroke-width="2"/>
<path d="M22.9973 40.5995C13.2776 40.5995 5.39819 32.7201 5.39819 23.0004" stroke="#35375E" stroke-width="2"/>
<path d="M22.9996 44.9989C10.85 44.9989 1.00073 35.1497 1.00073 23" stroke="#35375E" stroke-width="2"/>
<path d="M9.79932 1.00227C9.79932 5.86213 5.85962 9.80182 0.999764 9.80182" stroke="#35375E" stroke-width="2"/>
<path d="M14.2007 1.00001C14.2007 8.2898 8.29114 14.1993 1.00136 14.1993" stroke="#35375E" stroke-width="2"/>
<path d="M18.6018 1.00148C18.6018 10.7212 10.7224 18.6006 1.0027 18.6006" stroke="#35375E" stroke-width="2"/>
<path d="M22.9995 1.00112C22.9995 13.1508 13.1503 23 1.00063 23" stroke="#35375E" stroke-width="2"/>
<path d="M44.999 36.1982C40.1392 36.1982 36.1995 40.1379 36.1995 44.9978" stroke="#35375E" stroke-width="2"/>
<path d="M44.9977 31.8007C37.7079 31.8007 31.7983 37.7102 31.7983 45" stroke="#35375E" stroke-width="2"/>
<path d="M44.9961 27.3994C35.2764 27.3994 27.397 35.2788 27.397 44.9985" stroke="#35375E" stroke-width="2"/>
<path d="M44.9984 23C32.8487 23 22.9995 32.8492 22.9995 44.9989" stroke="#35375E" stroke-width="2"/>
<path d="M22.999 14.1993C27.8589 14.1993 31.7986 18.139 31.7986 22.9988" stroke="#35375E" stroke-width="2"/>
<path d="M23.0004 9.80176C30.2902 9.80176 36.1997 15.7113 36.1997 23.0011" stroke="#35375E" stroke-width="2"/>
<path d="M23.002 5.40051C32.7217 5.40051 40.6011 13.2799 40.6011 22.9996" stroke="#35375E" stroke-width="2"/>
<path d="M22.9997 1.0011C35.1493 1.0011 44.9985 10.8503 44.9985 23" stroke="#35375E" stroke-width="2"/>
</svg>
