<svg width="2560" height="967" viewBox="0 0 2560 967" fill="none" xmlns="http://www.w3.org/2000/svg">
<mask id="mask0" mask-type="alpha" maskUnits="userSpaceOnUse" x="-63" y="-2062" width="2778" height="3029">
<path fill-rule="evenodd" clip-rule="evenodd" d="M1870.09 946.333C2152.96 859.94 2322.68 580.65 2475.1 327.007C2619.41 86.8555 2709.44 -177.39 2713.82 -457.708C2718.35 -748.089 2638.79 -1025.23 2500.21 -1280.5C2339.14 -1577.2 2180.61 -1929.99 1859.1 -2032.13C1536.64 -2134.56 1195.03 -1953.78 899.746 -1788.93C642.568 -1645.36 467.525 -1410.47 305.127 -1164.6C145.664 -923.172 6.87224 -673.043 -27.1841 -385.548C-65.7055 -60.3599 -121.426 323.469 100.301 564.481C321.38 804.789 714.48 698.498 1033.43 767.315C1319.21 828.975 1590.59 1031.7 1870.09 946.333Z" fill="#BCF7D7"/>
</mask>
<g mask="url(#mask0)">
<path fill-rule="evenodd" clip-rule="evenodd" d="M1870.09 946.333C2152.96 859.94 2322.68 580.65 2475.1 327.007C2619.41 86.8555 2709.44 -177.39 2713.82 -457.708C2718.35 -748.089 2638.79 -1025.23 2500.21 -1280.5C2339.14 -1577.2 2180.61 -1929.99 1859.1 -2032.13C1536.64 -2134.56 1195.03 -1953.78 899.746 -1788.93C642.568 -1645.36 467.525 -1410.47 305.127 -1164.6C145.664 -923.172 6.87224 -673.043 -27.1841 -385.548C-65.7055 -60.3599 -121.426 323.469 100.301 564.481C321.38 804.789 714.48 698.498 1033.43 767.315C1319.21 828.975 1590.59 1031.7 1870.09 946.333Z" fill="#BCF7D7"/>
<path fill-rule="evenodd" clip-rule="evenodd" d="M710 673.214C710.04 670.698 708.865 668.18 706.448 667.344C703.856 666.447 700.96 667.351 699.329 669.522C697.663 671.741 697.502 674.801 699.195 677.001C700.804 679.094 703.754 679.427 706.269 678.545C708.556 677.743 709.962 675.597 710 673.214Z" fill="#5C9978"/>
<path opacity="0.2" fill-rule="evenodd" clip-rule="evenodd" d="M543 156.214C543.04 153.698 541.865 151.18 539.448 150.344C536.856 149.447 533.96 150.351 532.329 152.522C530.663 154.741 530.502 157.801 532.195 160.001C533.804 162.094 536.754 162.427 539.269 161.545C541.556 160.743 542.962 158.597 543 156.214Z" fill="#5C9978"/>
<path fill-rule="evenodd" clip-rule="evenodd" d="M150.422 349.254C150.387 340.365 142.911 333.813 134.33 331.089C125.831 328.39 116.202 329.677 110.77 336.664C104.914 344.197 104.215 354.809 109.986 362.405C115.534 369.707 125.69 370.724 134.478 367.866C143.126 365.053 150.458 358.232 150.422 349.254Z" fill="#5C9978"/>
<path opacity="0.2" fill-rule="evenodd" clip-rule="evenodd" d="M1820.32 549.701C1820.36 543.376 1817.74 536.978 1811.79 534.801C1805.16 532.377 1797.55 534.186 1793.31 539.817C1788.86 545.729 1788.44 553.976 1792.9 559.883C1797.15 565.515 1804.99 566.514 1811.61 564.056C1817.42 561.9 1820.28 555.886 1820.32 549.701Z" fill="#5C9978"/>
<path opacity="0.3" fill-rule="evenodd" clip-rule="evenodd" d="M1420.57 -2.04914C1420.6 -8.37423 1417.98 -14.7719 1412.03 -16.9488C1405.41 -19.3732 1397.79 -17.5645 1393.55 -11.9336C1389.1 -6.02149 1388.68 2.22588 1393.14 8.13249C1397.4 13.7649 1405.23 14.7642 1411.85 12.3055C1417.66 10.1494 1420.53 4.13599 1420.57 -2.04914Z" fill="#5C9978"/>
<path fill-rule="evenodd" clip-rule="evenodd" d="M2444.01 429.309C2444.16 456.204 2427.88 480.958 2402.68 488.877C2378.55 496.464 2354.28 482.981 2339.33 462.215C2324.07 441.036 2317.5 412.707 2332.38 391.252C2347.75 369.083 2376.79 363.178 2402.03 371.784C2426.6 380.159 2443.86 402.879 2444.01 429.309Z" fill="#5C9978"/>
</g>
</svg>
