<svg width="34" height="33" viewBox="0 0 34 33" fill="none" xmlns="http://www.w3.org/2000/svg">
<path d="M23.7044 16.4822C23.7044 19.6236 21.633 22.5015 18.4447 23.373C14.6471 24.4067 10.7074 22.157 9.65144 18.3671C8.61575 14.5771 10.8699 10.6453 14.6674 9.59138C15.3782 9.38871 16.1093 9.32791 16.7997 9.34818V6.71345C15.8656 6.69318 14.9111 6.79452 13.977 7.05799C8.7579 8.49696 5.69144 13.8677 7.11298 19.0561C8.53452 24.2648 13.9161 27.3251 19.1351 25.9064C23.5013 24.7107 26.3444 20.7788 26.3241 16.4619L23.7044 16.4822Z" fill="#35375E"/>
<path d="M0.63465 21.0221C2.70603 28.2778 9.30603 32.9797 16.495 33V30.3653C10.4636 30.345 4.89926 26.3929 3.17311 20.3128C1.08142 12.9355 5.36634 5.25429 12.7583 3.16677C20.13 1.07926 27.8266 5.35563 29.9183 12.7126C30.2839 13.9692 30.426 15.2257 30.426 16.4823H33.066C33.066 15.0028 32.8833 13.503 32.4568 12.0032C29.9589 3.22758 20.8205 -1.85947 12.0273 0.633383C3.23403 3.12624 -1.86319 12.2465 0.63465 21.0221Z" fill="#35375E"/>
</svg>
