<svg width="80" height="35" viewBox="0 0 80 35" fill="none" xmlns="http://www.w3.org/2000/svg">
<g clip-path="url(#clip0)">
<path d="M47.6286 26.2476C47.067 26.959 46.1684 27.4083 45.0076 27.4083C42.7985 27.4083 41.5254 25.7234 41.5254 23.7389C41.5254 21.717 42.7985 20.0695 45.0076 20.0695C46.1684 20.0695 47.0295 20.5188 47.6286 21.2302L48.5647 20.4439C47.741 19.5453 46.5428 18.9462 45.0451 18.9462C42.0871 18.9462 40.2898 21.1553 40.2898 23.7389C40.2898 26.3224 42.0496 28.5316 45.0451 28.5316C46.5802 28.5316 47.7784 27.9325 48.5647 27.0339L47.6286 26.2476Z" fill="#35375E"/>
<path d="M40.2524 11.0456C40.2524 8.46201 42.0123 6.25287 45.0077 6.25287C47.9657 6.25287 49.763 8.46201 49.763 11.0456C49.763 13.6291 48.0032 15.8383 45.0077 15.8383C42.0497 15.8383 40.2524 13.6291 40.2524 11.0456ZM48.4899 11.0456C48.4899 9.02365 47.2168 7.30127 45.0077 7.30127C42.7986 7.30127 41.5255 9.02365 41.5255 11.0456C41.5255 13.0675 42.7986 14.7899 45.0077 14.7899C47.2168 14.7524 48.4899 13.0301 48.4899 11.0456Z" fill="#35375E"/>
<path d="M57.437 12.6184C57.437 14.4531 56.2014 15.801 54.4416 15.801C53.5055 15.801 52.6817 15.3143 52.2699 14.5654V18.422H51.1091V9.58547H52.2699V10.6339C52.6443 9.88501 53.5055 9.39825 54.479 9.39825C56.2388 9.39825 57.437 10.7088 57.437 12.6184ZM56.2763 12.6184C56.2763 11.3453 55.4525 10.4467 54.2543 10.4467C53.0562 10.4467 52.195 11.3453 52.195 12.6184C52.195 13.8914 53.0187 14.7901 54.2543 14.7901C55.4525 14.7526 56.2763 13.854 56.2763 12.6184Z" fill="#35375E"/>
<path d="M65.4509 9.58532H66.5742V10.7086C66.9111 9.92231 67.6226 9.43555 68.671 9.43555C70.1687 9.43555 70.9175 10.2967 70.9175 11.9068V15.6511H69.7568V12.431C69.7568 11.083 69.3075 10.4465 68.2216 10.4465C67.0984 10.4465 66.4993 11.2328 66.4993 12.4684V15.6885H65.376V9.58532H65.4509Z" fill="#35375E"/>
<path d="M58.075 19.1707H56.9143V28.3443H58.075V19.1707Z" fill="#35375E"/>
<path d="M59.2722 25.3113C59.2722 23.5514 60.4704 22.1286 62.4174 22.1286C64.3645 22.1286 65.5627 23.5514 65.5627 25.3113C65.5627 27.0711 64.3645 28.4939 62.4174 28.4939C60.4704 28.4939 59.2722 27.1085 59.2722 25.3113ZM64.4394 25.3113C64.4394 24.1131 63.6905 23.1396 62.4174 23.1396C61.1444 23.1396 60.3955 24.0756 60.3955 25.3113C60.3955 26.5094 61.1444 27.483 62.4174 27.483C63.6905 27.483 64.4394 26.5469 64.4394 25.3113Z" fill="#35375E"/>
<path d="M66.7994 22.3162H67.9227V23.4394C68.2597 22.6531 68.9711 22.1664 70.0195 22.1664C71.5172 22.1664 72.2661 23.0276 72.2661 24.6376V28.3819H71.1428V25.1618C71.1428 23.8139 70.6935 23.1773 69.6076 23.1773C68.4843 23.1773 67.8853 23.9636 67.8853 25.1993V28.4194H66.762V22.3162H66.7994Z" fill="#35375E"/>
<path d="M49.3872 25.3113C49.3872 23.5514 50.5854 22.1286 52.5324 22.1286C54.4795 22.1286 55.6776 23.5514 55.6776 25.3113C55.6776 27.0711 54.4795 28.4939 52.5324 28.4939C50.5854 28.4939 49.3872 27.1085 49.3872 25.3113ZM54.5543 25.3113C54.5543 24.1131 53.8055 23.1396 52.5324 23.1396C51.2594 23.1396 50.5105 24.0756 50.5105 25.3113C50.5105 26.5094 51.2594 27.483 52.5324 27.483C53.8055 27.483 54.5543 26.5469 54.5543 25.3113Z" fill="#35375E"/>
<path d="M63.0161 13.8913C62.754 14.4529 62.2298 14.7899 61.406 14.7899C60.2453 14.7899 59.5339 14.1159 59.4964 12.9552H64.1768C64.2142 12.6556 64.2143 12.5433 64.2143 12.2812C64.2143 10.5963 63.0535 9.43555 61.3311 9.43555C59.5339 9.43555 58.3357 10.6712 58.3357 12.6182C58.3357 14.5652 59.4964 15.8009 61.3686 15.8009C62.5293 15.8009 63.5028 15.2767 63.9147 14.4529L63.0161 13.8913ZM61.3311 10.3342C62.417 10.3342 63.091 11.0082 63.091 12.0566H59.4964C59.5713 11.0456 60.2453 10.3342 61.3311 10.3342Z" fill="#35375E"/>
<path d="M79.1929 22.3158H78.0321V25.4236C78.0321 26.5094 77.4705 27.4829 76.3098 27.4829C75.1116 27.4829 74.7746 26.7341 74.7746 25.6857V22.3158H73.6139V25.9103C73.6139 27.4455 74.3253 28.4939 75.8979 28.4939C76.9088 28.4939 77.6577 27.9697 77.9947 27.2583V28.4565C77.9573 29.6172 77.2833 30.2912 76.1225 30.2912C75.3362 30.2912 74.812 29.9542 74.5499 29.3925L73.5764 29.9167C73.9883 30.7405 74.9618 31.2647 76.1225 31.2647C77.9947 31.2647 79.1554 30.0291 79.1554 28.082L79.1929 22.3158Z" fill="#35375E"/>
<path d="M11.9011 9.32934C15.5705 6.8581 20.5879 7.08276 23.9952 10.1531C28.039 13.7851 28.3386 20.0006 24.7066 24.0445C21.0746 28.0883 14.8591 28.3879 10.8152 24.7559C7.40791 21.6856 6.65905 16.7056 8.71842 12.8115L7.59513 12.2125C5.23622 16.5933 6.05996 22.2098 9.95404 25.692C14.4847 29.8107 21.5239 29.4363 25.6052 24.8682C29.724 20.3376 29.3495 13.2983 24.7815 9.21702C20.9623 5.73481 15.3458 5.47271 11.1897 8.28094L11.9011 9.32934Z" fill="#35375E"/>
<path d="M19.8072 19.8448C18.7588 20.8932 17.0739 21.1553 15.7259 20.4064C14.1159 19.4704 13.5168 17.411 14.4529 15.7635C15.389 14.1535 17.4483 13.5544 19.0958 14.4904C19.3579 14.6402 19.62 14.8274 19.8072 15.0521L20.7059 14.1535C20.4063 13.8539 20.1068 13.5918 19.7323 13.4046C17.4858 12.1315 14.6775 12.9178 13.4045 15.127C12.1314 17.3736 12.9177 20.1818 15.1269 21.4549C16.999 22.5033 19.283 22.1663 20.7059 20.706L19.8072 19.8448Z" fill="#35375E"/>
<path d="M19.582 25.012C23.7382 23.8138 26.172 19.4704 24.9738 15.3142C23.8131 11.1206 19.4697 8.72426 15.2761 9.885C11.8313 10.8585 9.58472 13.9663 9.58472 17.3736H10.8578C10.8578 14.5279 12.7299 11.9069 15.6505 11.0832C19.1701 10.1097 22.8021 12.1316 23.8131 15.6512C24.7866 19.1709 22.7647 22.8028 19.245 23.8138C18.6459 24.001 18.0468 24.0385 17.4478 24.0385V25.2741C18.1592 25.3115 18.8706 25.1992 19.582 25.012Z" fill="#35375E"/>
<path d="M2.05271 9.25425C-2.4779 17.7538 0.7422 28.3128 9.24177 32.8434C15.1578 35.9886 22.0847 35.3895 27.2893 31.8324L26.5779 30.784C21.7478 34.079 15.345 34.6406 9.84086 31.7201C1.97782 27.5265 -1.01762 17.7164 3.176 9.8159C7.36962 1.95286 17.1797 -1.04259 25.0802 3.15103C32.9432 7.34466 35.9387 17.1173 31.7825 24.9803L32.9058 25.5794C37.3989 17.0799 34.1788 6.55835 25.6793 2.02774C17.1423 -2.46542 6.58332 0.754679 2.05271 9.25425Z" fill="#35375E"/>
<path d="M28.0754 10.0783C30.7339 13.9349 31.2206 19.1395 28.8617 23.5578C25.4919 29.8857 17.6288 32.282 11.3009 28.9121C4.97306 25.5423 2.61415 17.6418 5.98402 11.3139C9.31645 5.02347 17.1421 2.62711 23.4325 5.9221L24.0316 4.79881C17.1046 1.20428 8.53015 3.82529 4.86073 10.7523C1.15387 17.6792 3.77488 26.3286 10.7393 29.998C17.6663 33.7048 26.2782 31.0838 29.985 24.1194C32.5686 19.2518 32.0444 13.5605 29.1238 9.32942L28.0754 10.0783Z" fill="#35375E"/>
</g>
<defs>
<clipPath id="clip0">
<path d="M0 0H79.1921V34.8969H0V0Z" fill="white"/>
</clipPath>
</defs>
</svg>
